<?xml version="1.0" encoding="utf-8"?>
<!-- Generator: Adobe Illustrator 23.0.1, SVG Export Plug-In . SVG Version: 6.00 Build 0)  -->
<svg version="1.1" xmlns="http://www.w3.org/2000/svg" xmlns:xlink="http://www.w3.org/1999/xlink" x="0px" y="0px"
	 viewBox="0 0 138.3 144" style="enable-background:new 0 0 138.3 144;" xml:space="preserve">
<style type="text/css">
	.st0{fill:#48426D;}
	.st1{fill:#FFFFFF;}
	.st2{fill:#F0C38E;}
</style>
<g id="Layer_2">
	<circle class="st0" cx="69.2" cy="72" r="63"/>
</g>
<g id="Layer_1">
	<path class="st1" d="M102.3,100.7L87.4,85.8c-0.7-0.7-1.6-1-2.5-1h-2.4c4.1-5.3,6.6-11.9,6.6-19.1c0-17.2-13.9-31.1-31.1-31.1
		S26.8,48.5,26.8,65.6s13.9,31.1,31.1,31.1c7.2,0,13.9-2.5,19.1-6.6v2.4c0,1,0.4,1.9,1,2.5L93,110c1.4,1.4,3.7,1.4,5.1,0l4.2-4.2
		C103.7,104.4,103.7,102.1,102.3,100.7z M57.9,84.8c-10.6,0-19.1-8.5-19.1-19.1c0-10.6,8.5-19.1,19.1-19.1
		c10.6,0,19.1,8.5,19.1,19.1C77,76.2,68.5,84.8,57.9,84.8z"/>
</g>
</svg>
