<?xml version="1.0" encoding="utf-8"?>
<!-- Generator: Adobe Illustrator 23.0.1, SVG Export Plug-In . SVG Version: 6.00 Build 0)  -->
<svg version="1.1" xmlns="http://www.w3.org/2000/svg" xmlns:xlink="http://www.w3.org/1999/xlink" x="0px" y="0px"
	 viewBox="0 0 138.3 144" style="enable-background:new 0 0 138.3 144;" xml:space="preserve">
<style type="text/css">
	.st0{fill:#48426D;}
	.st1{fill:#FFFFFF;}
</style>
<g id="Layer_2">
	<circle class="st0" cx="69.2" cy="72" r="63"/>
	<circle class="st0" cx="-99.8" cy="72" r="63"/>
	<circle class="st0" cx="-99.8" cy="-95" r="63"/>
</g>
<g id="Layer_1">
	<path class="st1" d="M-99.9-132.1c-10.7,0-20.5,4.2-27.6,11.1l-5.8-5.8c-2.4-2.4-6.6-0.7-6.6,2.7v21.7c0,2.1,1.7,3.9,3.9,3.9h21.7
		c3.5,0,5.2-4.2,2.7-6.6l-6.8-6.8c5-4.7,11.5-7.3,18.3-7.3c14.9-0.1,27.5,12,27.4,27.4c-0.1,14.6-12,26.9-27.2,26.9
		c-6.7,0-12.9-2.4-17.9-6.7c-0.8-0.7-1.9-0.6-2.6,0.1l-6.4,6.4c-0.8,0.8-0.7,2.1,0.1,2.8c7.1,6.4,16.5,10.3,26.9,10.3
		c22.2,0,40.1-18,40.1-40.1C-59.7-114.1-77.8-132.2-99.9-132.1z"/>
	<path class="st1" d="M-84.4,42.7c0-8.5-6.9-15.5-15.5-15.5s-15.5,6.9-15.5,15.5s6.9,15.5,15.5,15.5S-84.4,51.2-84.4,42.7z
		 M-103.4,66c-9.6-5.9-25-7.5-32.8-7.9c-2.6-0.1-4.8,1.8-4.8,4.4v35.9c0,2.3,1.9,4.2,4.3,4.4c7,0.4,21.3,1.7,31.1,6.7
		c1.5,0.8,3.3-0.3,3.3-1.9V67.9C-102.4,67.1-102.8,66.4-103.4,66L-103.4,66z M-63.4,58.1c-7.8,0.4-23.3,2.1-32.8,7.9
		c-0.7,0.4-1,1.1-1,1.9v39.6c0,1.6,1.8,2.7,3.3,1.9c9.8-4.9,24.1-6.3,31.1-6.7c2.4-0.1,4.3-2.1,4.3-4.4V62.5
		C-58.6,60-60.8,58-63.4,58.1z"/>
	<path class="st1" d="M102.3,97.7L87.4,82.8c-0.7-0.7-1.6-1-2.5-1h-2.4c4.1-5.3,6.6-11.9,6.6-19.1c0-17.2-13.9-31.1-31.1-31.1
		S26.8,45.5,26.8,62.6s13.9,31.1,31.1,31.1c7.2,0,13.9-2.5,19.1-6.6v2.4c0,1,0.4,1.9,1,2.5L93,107c1.4,1.4,3.7,1.4,5.1,0l4.2-4.2
		C103.7,101.4,103.7,99.1,102.3,97.7z M57.9,81.8c-10.6,0-19.1-8.5-19.1-19.1c0-10.6,8.5-19.1,19.1-19.1c10.6,0,19.1,8.5,19.1,19.1
		C77,73.2,68.5,81.8,57.9,81.8z"/>
</g>
</svg>
