<?xml version="1.0" encoding="utf-8"?>
<!-- Generator: Adobe Illustrator 23.0.1, SVG Export Plug-In . SVG Version: 6.00 Build 0)  -->
<svg version="1.1" id="Layer_1" xmlns="http://www.w3.org/2000/svg" xmlns:xlink="http://www.w3.org/1999/xlink" x="0px" y="0px"
	 viewBox="0 0 130 144" style="enable-background:new 0 0 130 144;" xml:space="preserve">
<style type="text/css">
	.st0{fill:#FFFFFF;}
</style>
<g>
	<path class="st0" d="M2.1,72c0,14.5,0,29,0,43.5c0,17,11.5,28.4,28.6,28.4c29.1,0,58.3,0,87.4,0c8.6,0,12-5.6,9.3-13.6
		c-1.6-4.9-2.7-10.2-2.5-15.3c0.1-5.4,2.8-10.8,2.9-16.3c0.3-29.8,0.2-59.6,0.1-89.4c0-7-2.2-9.2-9.3-9.2c-29.5,0-58.9,0-88.4,0
		C13.7,0.1,2.2,11.7,2.1,28C2,42.7,2.1,57.4,2.1,72z"/>
	<path d="M2.1,72c0-14.7,0-29.3,0-44C2.2,11.7,13.7,0.1,30.2,0.1c29.5,0,59,0,88.4,0c7.1,0,9.3,2.2,9.3,9.2
		c0,29.8,0.2,59.6-0.1,89.4c-0.1,5.4-2.7,10.8-2.9,16.3c-0.1,5.1,0.9,10.4,2.5,15.3c2.7,8.1-0.7,13.6-9.3,13.6
		c-29.2,0-58.3,0-87.4,0c-17.1,0-28.6-11.4-28.6-28.4C2.1,101,2.1,86.5,2.1,72z M69.2,34.1c-0.9-0.8-1.9-1.7-2.9-2.5
		c-7.5-6.3-17.1-6.2-23.4,0.2c-6.5,6.7-6.8,16.7,0,23.8c7.4,7.9,15.1,15.5,22.7,23.2c2.1,2.2,4.6,3.2,7,0.8
		c8.6-8.6,17.3-17.1,25.3-26.2c5-5.8,4.2-14.4-0.6-20.4c-4.7-5.8-12.4-7.9-19.4-4.7C74.9,29.7,72.4,31.9,69.2,34.1z M108.8,126.1
		c0-6.4,0-12.1,0-18c-1.3-0.1-2.3-0.2-3.3-0.2c-24.9,0-49.9,0-74.8,0c-6.6,0-10.8,3.6-10.8,9.1s4.2,9,10.8,9c14.8,0,29.6,0,44.4,0
		C86.3,126.1,97.4,126.1,108.8,126.1z"/>
	<path class="st0" d="M69.2,34.1c3.2-2.1,5.7-4.4,8.7-5.8c7-3.1,14.7-1.1,19.4,4.7c4.8,5.9,5.6,14.6,0.6,20.4
		c-8,9.1-16.8,17.6-25.3,26.2c-2.4,2.4-4.8,1.4-7-0.8C58,71.1,50.2,63.6,42.8,55.7c-6.7-7.2-6.5-17.2,0-23.8
		c6.4-6.5,15.9-6.6,23.4-0.2C67.3,32.4,68.3,33.3,69.2,34.1z"/>
	<path class="st0" d="M108.8,126.1c-11.4,0-22.5,0-33.6,0c-14.8,0-29.6,0-44.4,0c-6.6,0-10.8-3.6-10.8-9c0-5.5,4.2-9.1,10.8-9.1
		c24.9,0,49.9,0,74.8,0c1,0,2,0.1,3.3,0.2C108.8,113.9,108.8,119.7,108.8,126.1z"/>
</g>
</svg>
