<?xml version="1.0" encoding="utf-8"?>
<!-- Generator: Adobe Illustrator 23.0.1, SVG Export Plug-In . SVG Version: 6.00 Build 0)  -->
<svg version="1.1" xmlns="http://www.w3.org/2000/svg" xmlns:xlink="http://www.w3.org/1999/xlink" x="0px" y="0px"
	 viewBox="0 0 138.3 144" style="enable-background:new 0 0 138.3 144;" xml:space="preserve">
<style type="text/css">
	.st0{fill:#48426D;}
	.st1{fill:#FFFFFF;}
	.st2{fill:#F0C38E;}
</style>
<g id="Layer_2">
	<circle class="st0" cx="69.2" cy="72" r="63"/>
</g>
<g id="Layer_1">
	<path class="st1" d="M84.6,42.7c0-8.5-6.9-15.5-15.5-15.5s-15.5,6.9-15.5,15.5s6.9,15.5,15.5,15.5S84.6,51.2,84.6,42.7z M65.6,66
		c-9.6-5.9-25-7.5-32.8-7.9c-2.6-0.1-4.8,1.8-4.8,4.4v35.9c0,2.3,1.9,4.2,4.3,4.4c7,0.4,21.3,1.7,31.1,6.7c1.5,0.8,3.3-0.3,3.3-1.9
		V67.9C66.6,67.1,66.2,66.4,65.6,66L65.6,66z M105.6,58.1c-7.8,0.4-23.3,2.1-32.8,7.9c-0.7,0.4-1,1.1-1,1.9v39.6
		c0,1.6,1.8,2.7,3.3,1.9c9.8-4.9,24.1-6.3,31.1-6.7c2.4-0.1,4.3-2.1,4.3-4.4V62.5C110.4,60,108.2,58,105.6,58.1z"/>
</g>
</svg>
