<?xml version="1.0" encoding="utf-8"?>
<!-- Generator: Adobe Illustrator 23.0.1, SVG Export Plug-In . SVG Version: 6.00 Build 0)  -->
<svg version="1.1" xmlns="http://www.w3.org/2000/svg" xmlns:xlink="http://www.w3.org/1999/xlink" x="0px" y="0px"
	 viewBox="0 0 138.3 144" style="enable-background:new 0 0 138.3 144;" xml:space="preserve">
<style type="text/css">
	.st0{fill:#48426D;}
	.st1{fill:#FFFFFF;}
	.st2{fill:#F0C38E;}
</style>
<g id="Layer_2">
	<circle class="st0" cx="69.2" cy="72" r="63"/>
</g>
<g id="Layer_1">
	<path class="st1" d="M69.1,34.9c-10.7,0-20.5,4.2-27.6,11.1l-5.8-5.8c-2.4-2.4-6.6-0.7-6.6,2.7v21.7c0,2.1,1.7,3.9,3.9,3.9h21.7
		c3.5,0,5.2-4.2,2.7-6.6l-6.8-6.8c5-4.7,11.5-7.3,18.3-7.3c14.9-0.1,27.5,12,27.4,27.4c-0.1,14.6-12,26.9-27.2,26.9
		c-6.7,0-12.9-2.4-17.9-6.7c-0.8-0.7-1.9-0.6-2.6,0.1l-6.4,6.4c-0.8,0.8-0.7,2.1,0.1,2.8c7.1,6.4,16.5,10.3,26.9,10.3
		c22.2,0,40.1-18,40.1-40.1C109.3,52.9,91.2,34.8,69.1,34.9z"/>
</g>
</svg>
